<?xml version="1.0" standalone="no"?>
<!DOCTYPE svg PUBLIC "-//W3C//DTD SVG 20010904//EN"
 "http://www.w3.org/TR/2001/REC-SVG-20010904/DTD/svg10.dtd">
<svg version="1.0" xmlns="http://www.w3.org/2000/svg"
 width="330.000000pt" height="184.000000pt" viewBox="0 0 330.000000 184.000000"
 preserveAspectRatio="xMidYMid meet">

<g transform="translate(0.000000,184.000000) scale(0.100000,-0.100000)"
fill="#000000" stroke="none">
<path d="M1476 1743 c-3 -4 -6 -46 -6 -94 l0 -88 116 -115 c73 -73 114 -121
112 -132 -2 -9 -68 -54 -150 -101 l-148 -85 -72 74 c-88 89 -196 149 -307 169
-179 31 -396 -74 -505 -244 -158 -246 -85 -553 168 -719 200 -130 474 -99 647
72 47 46 99 123 99 144 0 3 -136 7 -302 8 l-303 3 0 155 0 155 496 3 496 2 7
-31 c3 -17 6 -41 6 -52 0 -11 38 -61 88 -115 48 -52 118 -131 157 -176 38 -45
114 -132 167 -194 l98 -112 57 71 c130 161 423 497 436 498 4 1 7 -172 7 -384
l0 -385 175 0 175 0 0 842 c0 464 -4 838 -9 833 -151 -169 -724 -822 -770
-878 -35 -42 -67 -77 -72 -77 -4 0 -106 111 -226 247 -120 135 -278 314 -352
397 -73 83 -166 188 -206 233 -40 45 -76 79 -79 76z"/>
<path d="M1820 700 c0 -12 -9 -58 -21 -104 -37 -149 -129 -288 -266 -405 -56
-47 -64 -58 -61 -85 l3 -31 178 -3 177 -2 0 325 c0 179 -2 325 -5 325 -3 0 -5
-9 -5 -20z"/>
</g>
</svg>
